<svg width="143" height="143" viewBox="0 0 143 143" fill="none" xmlns="http://www.w3.org/2000/svg">
<path d="M71.5 0C32.0154 0 0 32.8453 0 73.3194C0 105.718 20.4924 133.169 48.9009 142.872C49.2994 142.959 49.7061 143.002 50.1138 143C52.7632 143 53.7846 141.053 53.7846 139.361C53.7846 137.606 53.7208 133.009 53.6888 126.881C51.3237 127.435 48.9042 127.724 46.475 127.742C32.7176 127.742 29.5895 117.049 29.5895 117.049C26.3337 108.591 21.6415 106.324 21.6415 106.324C15.4172 101.951 21.6096 101.824 22.0884 101.824H22.1203C29.3022 102.462 33.0688 109.421 33.0688 109.421C36.6438 115.677 41.4317 117.432 45.7089 117.432C48.5371 117.376 51.3216 116.723 53.8804 115.517C54.5188 110.793 56.3701 107.569 58.4129 105.718C42.5489 103.867 25.8549 97.5783 25.8549 69.4891C25.8549 61.4772 28.6319 54.9337 33.1964 49.8266C32.4623 47.9752 30.0045 40.506 33.8987 30.4194C34.421 30.2944 34.9579 30.2407 35.4946 30.2598C38.0801 30.2598 43.9214 31.2493 53.5612 37.9525C65.2742 34.6753 77.662 34.6753 89.375 37.9525C99.0147 31.2493 104.856 30.2598 107.442 30.2598C107.978 30.2407 108.515 30.2944 109.038 30.4194C112.932 40.506 110.474 47.9752 109.74 49.8266C114.304 54.9656 117.081 61.5091 117.081 69.4891C117.081 97.6422 100.355 103.835 84.4275 105.654C86.981 107.92 89.2792 112.389 89.2792 119.22C89.2792 129.019 89.1835 136.935 89.1835 139.329C89.1835 141.053 90.173 143 92.8223 143C93.2512 143.002 93.6791 142.959 94.0991 142.872C122.54 133.169 143 105.686 143 73.3194C143 32.8453 110.985 0 71.5 0Z" fill="white"/>
</svg>
